<svg xmlns="http://www.w3.org/2000/svg" xmlns:xlink="http://www.w3.org/1999/xlink" width="60" zoomAndPan="magnify" viewBox="0 0 45 30.000001" height="40" preserveAspectRatio="xMidYMid meet" version="1.0"><defs><g/><clipPath id="0e4f55c0e3"><path d="M 16.503906 9.476562 L 31.9375 9.476562 L 31.9375 19.613281 L 16.503906 19.613281 Z M 16.503906 9.476562 " clip-rule="nonzero"/></clipPath></defs><g clip-path="url(#0e4f55c0e3)"><path fill="#fcd24f" d="M 31.242188 14.148438 C 30.59375 11.675781 29.847656 10.046875 28.125 9.578125 C 27.863281 9.507812 27.613281 9.472656 27.367188 9.472656 C 26.847656 9.472656 26.429688 9.628906 26.023438 9.78125 C 25.652344 9.921875 25.234375 10.074219 24.660156 10.125 L 24.226562 10.136719 C 24.226562 10.140625 22.925781 9.949219 22.472656 9.78125 C 22.070312 9.628906 21.652344 9.472656 21.136719 9.472656 C 20.886719 9.472656 20.640625 9.507812 20.378906 9.578125 C 18.652344 10.046875 17.90625 11.675781 17.257812 14.148438 C 16.507812 17.015625 16.714844 18.9375 17.828125 19.421875 C 18.007812 19.5 18.199219 19.539062 18.394531 19.539062 C 19.382812 19.539062 20.292969 18.5 20.957031 17.742188 L 21.136719 17.53125 C 21.679688 16.898438 22.816406 16.535156 24.25 16.535156 C 25.8125 16.535156 26.773438 16.839844 27.363281 17.53125 L 27.542969 17.742188 C 28.207031 18.5 29.117188 19.539062 30.105469 19.539062 C 30.300781 19.539062 30.492188 19.5 30.671875 19.421875 C 31.785156 18.9375 31.992188 17.015625 31.242188 14.148438 Z M 21.886719 14.34375 L 21.144531 14.34375 L 21.144531 15.0625 C 21.144531 15.324219 20.914062 15.546875 20.636719 15.546875 C 20.363281 15.546875 20.128906 15.324219 20.128906 15.0625 L 20.128906 14.34375 L 19.433594 14.34375 C 19.171875 14.34375 18.945312 14.109375 18.945312 13.835938 C 18.945312 13.558594 19.167969 13.328125 19.433594 13.328125 L 20.128906 13.328125 L 20.128906 12.609375 C 20.128906 12.34375 20.363281 12.121094 20.636719 12.121094 C 20.914062 12.121094 21.144531 12.34375 21.144531 12.609375 L 21.144531 13.328125 L 21.886719 13.328125 C 22.148438 13.328125 22.375 13.558594 22.375 13.835938 C 22.375 14.109375 22.148438 14.34375 21.886719 14.34375 Z M 27.160156 15.226562 C 26.75 15.226562 26.414062 14.890625 26.414062 14.480469 C 26.414062 14.070312 26.75 13.734375 27.160156 13.734375 C 27.570312 13.734375 27.90625 14.070312 27.90625 14.480469 C 27.90625 14.890625 27.570312 15.226562 27.160156 15.226562 Z M 28.550781 13.835938 C 28.140625 13.835938 27.804688 13.5 27.804688 13.089844 C 27.804688 12.679688 28.140625 12.34375 28.550781 12.34375 C 28.960938 12.34375 29.296875 12.679688 29.296875 13.089844 C 29.296875 13.5 28.960938 13.835938 28.550781 13.835938 Z M 28.550781 13.835938 " fill-opacity="1" fill-rule="nonzero"/></g><g fill="#000000" fill-opacity="1"><g transform="translate(4.741544, 19.013025)"><g><path d="M 2.546875 0.09375 C 1.804688 0.09375 1.253906 -0.160156 0.890625 -0.671875 C 0.535156 -1.191406 0.359375 -1.976562 0.359375 -3.03125 L 0.359375 -7.40625 C 0.359375 -8.34375 0.566406 -9.050781 0.984375 -9.53125 C 1.410156 -10.007812 2.035156 -10.25 2.859375 -10.25 C 3.535156 -10.25 4.054688 -10.113281 4.421875 -9.84375 C 4.796875 -9.582031 5.050781 -9.191406 5.1875 -8.671875 C 5.332031 -8.160156 5.40625 -7.503906 5.40625 -6.703125 L 3.421875 -6.703125 L 3.421875 -7.625 C 3.421875 -7.863281 3.382812 -8.050781 3.3125 -8.1875 C 3.25 -8.320312 3.128906 -8.390625 2.953125 -8.390625 C 2.566406 -8.390625 2.375 -8.132812 2.375 -7.625 L 2.375 -2.703125 C 2.375 -2.398438 2.410156 -2.171875 2.484375 -2.015625 C 2.566406 -1.859375 2.707031 -1.78125 2.90625 -1.78125 C 3.101562 -1.78125 3.238281 -1.859375 3.3125 -2.015625 C 3.394531 -2.171875 3.4375 -2.398438 3.4375 -2.703125 L 3.4375 -4.15625 L 2.890625 -4.15625 L 2.890625 -5.921875 L 5.375 -5.921875 L 5.375 0 L 4.5625 0 L 4.21875 -0.859375 C 3.851562 -0.222656 3.296875 0.09375 2.546875 0.09375 Z M 2.546875 0.09375 "/></g></g></g><g fill="#000000" fill-opacity="1"><g transform="translate(10.475165, 19.013025)"><g><path d="M 0.171875 0 L 1.15625 -10.15625 L 4.59375 -10.15625 L 5.578125 0 L 3.640625 0 L 3.5 -1.640625 L 2.265625 -1.640625 L 2.15625 0 Z M 2.421875 -3.265625 L 3.34375 -3.265625 L 2.890625 -8.4375 L 2.796875 -8.4375 Z M 2.421875 -3.265625 "/></g></g></g><g fill="#000000" fill-opacity="1"><g transform="translate(32.079109, 19.013025)"><g><path d="M 0.453125 0 L 0.453125 -10.15625 L 4.515625 -10.15625 L 4.515625 -8.203125 L 2.515625 -8.203125 L 2.515625 -6.21875 L 4.4375 -6.21875 L 4.4375 -4.3125 L 2.515625 -4.3125 L 2.515625 -1.96875 L 4.65625 -1.96875 L 4.65625 0 Z M 0.453125 0 "/></g></g></g></svg>